<?xml version="1.0" encoding="UTF-8"?>
<svg version="1.1" viewBox="0 0 2048 772" width="501" height="189" xmlns="http://www.w3.org/2000/svg">
<path transform="translate(1320,105)" d="m0 0h22l-3 5-10 13-14 21-13 22-14 26-13 28-13 31-11 29-17 53-7 21 10 2 12 6 7 6 7 10 4 10 1 5v208l-3 12-6 10-6 7-11 7-13 4-8 1h-190l-15-3-11-6-10-10-7-14-2-10v-204l4-14 7-11 7-7 11-6 5-2 6-1 160-1 18-71 9-34 11-33 13-32 11-23 12-22 13-20 7-9 2-2 6-1zm-146 273-148 1-8 5-6 9-1 3-1 12v184l2 10 4 7 8 6 5 2 7 1h184l9-2 9-6 4-6 1-3v-207l-4-7-8-7-6-2h-5l-3 8-12 41-13 50-7 29-9 31-8 30-6 20-6 12-7 6-8 2-6-1-6-4-7-9-14-27-18-36-12-22-11-21-9-21-9-24-1-10 3-3 23-12 9-4 5 2 8 16 18 42 16 36 4 8 4 3 6-7 7-16 7-24 15-61 8-32v-2z" fill="#572E87"/>
<path transform="translate(166,362)" d="m0 0 18 1 16 4 12 6 12 11 9 10 4 6v5l-7 8-5-4-10-14-7-7-14-8-12-3-10-1h-10l-14 2-13 4-11 7-6 9-3 10v11l4 12 6 8 8 7 14 7 25 8 26 8 16 8 10 8 7 10 5 12 2 13-1 17-4 13-7 10-8 8-10 6-14 5-19 3h-16l-19-3-13-5-11-7-11-11-10-15-1-6 8-8 3 1 6 11 8 10 9 8 16 8 11 2h27l14-4 11-6 6-5 6-9 3-9 1-12-2-12-6-12-9-8-14-7-37-12-17-6-15-8-11-10-7-11-4-12-1-6v-11l3-13 5-9 5-6 10-7 11-5 12-3z" fill="#5C348B"/>
<path transform="translate(1886,427)" d="m0 0h27l15 4 11 6 8 7 4 5 1-18h10v146l-1 18-3 13-5 10-5 6-10 7-15 5-14 2h-22l-16-3-16-8-10-9-1-6 3-4 5 2 4 5 13 8 13 4 7 1h22l16-4 10-6 7-8 4-9 2-17 1-24-11 9-14 7-12 3-10 1h-12l-13-2-14-5-9-7-8-9-6-13-3-15-1-10v-33l2-16 5-15 6-9 5-6 11-7 13-5zm4 9-13 4-10 6-8 8-7 14-2 7-1 13v27l1 16 4 13 6 9 4 5 10 7 10 4 11 2h13l14-3 14-7 9-8 5-8 1-14v-56l-1-11-6-10-8-8-14-7-12-3z" fill="#0C0811"/>
<path transform="translate(338,427)" d="m0 0h26l14 4 10 7 6 7 4 7 5-5 10-8 15-8 16-4h26l11 3 10 5 9 9 6 12 2 10 1 13v96l-2 1h-7l-1-1-1-78-1-23-3-15-5-9-8-7-9-4-10-2h-16l-12 3-10 4-13 9-8 8-1 6v108l-1 1h-8l-2-1-1-108-4-12-7-9-10-6-13-3h-17l-14 4-10 5-13 10-5 6-1 4-1 109-7 1-3-1v-144h8l1 1 1 19 5-6 11-8 15-7z" fill="#0B070F"/>
<path transform="translate(602,427)" d="m0 0h22l14 3 10 4 9 7 6 7 5 12 1 4v111h-9l-1-20-10 10-13 8-15 5-16 2h-12l-16-3-9-5-5-4-6-10-3-9-1-13 2-12 6-12 7-6 10-5 13-3 11-1h57l-1-24-2-12-6-10-8-7-12-5-10-2h-19l-14 4-12 7-10 9-4 1-3-3-1-4 7-8 14-9 13-5zm2 78-16 2-12 5-5 4-5 8-2 7v15l4 10 7 8 12 6 12 2 16-1 14-4 12-6 10-9 7-10 1-5v-31l-1-1z" fill="#0B070F"/>
<path transform="translate(1333,427)" d="m0 0h22l15 3 12 5 11 8 6 7 7 14 3 15v47l-3 16-4 10-6 8-5 5-8 6-8 4-17 4-11 1h-11l-15-2-16-6-9-7-8-9-5-10-4-15-1-9v-39l3-17 5-12 7-9 9-8 12-6 12-3zm8 9-15 2-11 4-9 6-8 8-7 14-2 10-1 10v28l2 15 4 12 6 8 8 8 14 7 15 3h14l14-3 9-4 9-6 8-9 5-12 2-8 1-10v-28l-2-18-5-12-6-9-10-8-12-5-9-2z" fill="#0B070F"/>
<path transform="translate(1730,427)" d="m0 0h20l13 3 10 5 9 8 6 12 2 7 1 8v105l-5 1-6-1-1-107-3-10-6-9-7-6-10-4-12-2h-9l-15 3-12 5-10 7-8 7-3 5-1 111-1 1h-7l-2-1-1-40v-50l1-54h9l1 20 9-9 15-9 11-4z" fill="#0C090F"/>
<path transform="translate(1468,397)" d="m0 0h10l1 1v32l73 1v8l-10 1h-63v74l1 22 3 13 4 8 4 5 8 5 12 3h17l15-3 17-7 5-1 2 4-1 4-8 5-15 5-9 2-11 1h-14l-12-2-12-6-7-7-7-14-2-10-1-11v-90h-18l-2-7 2-2h18z" fill="#0F0A13"/>
<path transform="translate(857,397)" d="m0 0h9l2 1-1 33h74v8l-1 1h-73l1 84 2 19 4 11 6 8 10 6 9 2h18l15-3 20-8 3 3 1 4-6 5-18 6-10 2-11 1h-13l-12-2-9-4-8-6-6-9-4-13-2-16v-89l-18-1-1-1v-8h19z" fill="#0C0711"/>
<path transform="translate(772,427)" d="m0 0h16l15 4 7 4-1 9-3 1-15-6-10-2-12 1-14 7-10 9-6 9-1 3-1 41-1 68h-10v-144h10l1 20 7-9 7-6 10-6z" fill="#100B15"/>
<path transform="translate(1600,431)" d="m0 0h11v144l-2 1-9-1z" fill="#040205"/>
<path transform="translate(1601,370)" d="m0 0h8l5 4v9l-6 5-7-1-4-4-1-7z" fill="#0B070E"/>
</svg>
