<?xml version="1.0" encoding="UTF-8" standalone="no"?>
<!-- Uploaded to: SVG Repo, www.svgrepo.com, Transformed by: SVG Repo Mixer Tools -->

<svg
   fill="#000000"
   width="800px"
   height="800px"
   viewBox="-84.67 -84.67 1016.00 1016.00"
   style="shape-rendering:geometricPrecision;text-rendering:geometricPrecision;image-rendering:optimizeQuality;fill-rule:evenodd;clip-rule:evenodd"
   version="1.1"
   xml:space="preserve"
   id="svg2"
   sodipodi:docname="experience-dark.svg"
   inkscape:version="1.3.2 (091e20e, 2023-11-25, custom)"
   xmlns:inkscape="http://www.inkscape.org/namespaces/inkscape"
   xmlns:sodipodi="http://sodipodi.sourceforge.net/DTD/sodipodi-0.dtd"
   xmlns="http://www.w3.org/2000/svg"
   xmlns:svg="http://www.w3.org/2000/svg"><sodipodi:namedview
   id="namedview2"
   pagecolor="#ffffff"
   bordercolor="#000000"
   borderopacity="0.25"
   inkscape:showpageshadow="2"
   inkscape:pageopacity="0.0"
   inkscape:pagecheckerboard="0"
   inkscape:deskcolor="#d1d1d1"
   inkscape:zoom="0.97125"
   inkscape:cx="400"
   inkscape:cy="400"
   inkscape:window-width="1920"
   inkscape:window-height="991"
   inkscape:window-x="-9"
   inkscape:window-y="-9"
   inkscape:window-maximized="1"
   inkscape:current-layer="svg2" /><defs
   id="defs2" />

<g
   id="SVGRepo_bgCarrier"
   stroke-width="0">

<path
   transform="translate(-84.67, -84.67), scale(63.5)"
   fill="#4a6cf7"
   d="M9.166.33a2.25 2.25 0 00-2.332 0l-5.25 3.182A2.25 2.25 0 00.5 5.436v5.128a2.25 2.25 0 001.084 1.924l5.25 3.182a2.25 2.25 0 002.332 0l5.25-3.182a2.25 2.25 0 001.084-1.924V5.436a2.25 2.25 0 00-1.084-1.924L9.166.33z"
   strokewidth="0"
   id="path1" />

</g>

<g
   id="SVGRepo_tracerCarrier"
   stroke-linecap="round"
   stroke-linejoin="round" />

<g
   id="SVGRepo_iconCarrier"
   style="fill-opacity:1.0;fill:#ffffff"> <defs
   id="defs1"> <style
   type="text/css"
   id="style1">  .fil0 {fill:black;fill-rule:nonzero}  </style> </defs> <g
   id="Layer_x0020_1"
   style="fill-opacity:1.0;fill:#ffffff"> <path
   class="fil0"
   d="M30.88 111.05l784.9 0c11.4,0 20.64,9.24 20.64,20.64l0 583.28c0,11.4 -9.24,20.64 -20.64,20.64l-784.9 0c-11.4,0 -20.64,-9.24 -20.64,-20.64l0 -583.28c0,-11.4 9.24,-20.64 20.64,-20.64zm146.05 288.17c0,27.16 -41.29,27.16 -41.29,0 0,-32.49 15.12,-63.05 40.68,-82.92 -1.61,-2.27 -3.11,-4.62 -4.48,-7.04 -6.45,-11.45 -10.12,-24.63 -10.12,-38.63 0,-43.57 35.32,-78.89 78.89,-78.89 43.56,0 78.89,35.32 78.89,78.89 0,16.39 -5.09,32.34 -14.61,45.67 25.57,19.87 40.69,50.43 40.69,82.92 0,27.16 -41.29,27.16 -41.29,0 0,-23.44 -12.59,-44.7 -33.14,-55.92 -9.59,4.06 -20.13,6.22 -30.54,6.22 -10.41,0 -20.96,-2.16 -30.55,-6.22 -20.54,11.22 -33.13,32.48 -33.13,55.92zm-55.14 91.99l237.63 0c11.4,0 20.65,9.25 20.65,20.65l0 122.41c0,11.4 -9.25,20.65 -20.65,20.65l-237.63 0c-11.4,0 -20.64,-9.25 -20.64,-20.65l0 -122.41c0,-11.4 9.24,-20.65 20.64,-20.65zm216.99 41.29l-196.34 0 0 81.13 196.34 0 0 -81.13zm-98.17 -299.47c-20.77,0 -37.6,16.83 -37.6,37.6 0,21.09 16.9,37.6 37.6,37.6 20.72,0 37.6,-16.69 37.6,-37.6 0,-20.77 -16.84,-37.6 -37.6,-37.6zm183.62 29.12c-27.15,0 -27.15,-41.29 0,-41.29l300.64 0c27.15,0 27.15,41.29 0,41.29l-300.64 0zm46.81 363.65c-27.16,0 -27.16,-41.3 0,-41.3l253.83 0c27.15,0 27.15,41.3 0,41.3l-253.83 0zm-46.81 -272.74c-27.15,0 -27.15,-41.29 0,-41.29l300.64 0c27.15,0 27.15,41.29 0,41.29l-300.64 0zm46.81 90.91c-27.16,0 -27.16,-41.29 0,-41.29l253.83 0c27.15,0 27.15,41.29 0,41.29l-253.83 0zm0 90.92c-27.16,0 -27.16,-41.3 0,-41.3l253.83 0c27.15,0 27.15,41.3 0,41.3l-253.83 0zm324.09 -382.55l-743.6 0 0 541.98 743.6 0 0 -541.98z"
   id="path2"
   style="fill-opacity:1.0;fill:#ffffff" /> </g> </g>

</svg>
