<?xml version="1.0" encoding="UTF-8" standalone="no"?>
<!-- Uploaded to: SVG Repo, www.svgrepo.com, Transformed by: SVG Repo Mixer Tools -->

<svg
   width="800px"
   height="800px"
   viewBox="-2.4 -2.4 28.80 28.80"
   fill="#4a6cf7"
   stroke="#4a6cf7"
   version="1.1"
   id="svg2"
   sodipodi:docname="services-light.svg"
   inkscape:version="1.3.2 (091e20e, 2023-11-25, custom)"
   xmlns:inkscape="http://www.inkscape.org/namespaces/inkscape"
   xmlns:sodipodi="http://sodipodi.sourceforge.net/DTD/sodipodi-0.dtd"
   xmlns="http://www.w3.org/2000/svg"
   xmlns:svg="http://www.w3.org/2000/svg">
  <defs
     id="defs2" />
  <sodipodi:namedview
     id="namedview2"
     pagecolor="#ffffff"
     bordercolor="#000000"
     borderopacity="0.25"
     inkscape:showpageshadow="2"
     inkscape:pageopacity="0.0"
     inkscape:pagecheckerboard="0"
     inkscape:deskcolor="#d1d1d1"
     inkscape:zoom="0.97125"
     inkscape:cx="400"
     inkscape:cy="400"
     inkscape:window-width="1920"
     inkscape:window-height="991"
     inkscape:window-x="-9"
     inkscape:window-y="-9"
     inkscape:window-maximized="1"
     inkscape:current-layer="svg2" />
  <g
     id="SVGRepo_bgCarrier"
     stroke-width="0"
     transform="translate(0,0), scale(1)">
    <path
       transform="translate(-2.4, -2.4), scale(1.7999999999999998)"
       fill="#4a6cf7"
       d="M9.166.33a2.25 2.25 0 00-2.332 0l-5.25 3.182A2.25 2.25 0 00.5 5.436v5.128a2.25 2.25 0 001.084 1.924l5.25 3.182a2.25 2.25 0 002.332 0l5.25-3.182a2.25 2.25 0 001.084-1.924V5.436a2.25 2.25 0 00-1.084-1.924L9.166.33z"
       strokewidth="0"
       id="path1" />
  </g>
  <g
     id="SVGRepo_tracerCarrier"
     stroke-linecap="round"
     stroke-linejoin="round" />
  <g
     id="SVGRepo_iconCarrier"
     style="stroke:#333333;stroke-opacity:1">
    <path
       fill="none"
       stroke="#000000"
       stroke-width="2"
       d="M6,9 C7.65685425,9 9,7.65685425 9,6 C9,4.34314575 7.65685425,3 6,3 C4.34314575,3 3,4.34314575 3,6 C3,7.65685425 4.34314575,9 6,9 Z M6,3 L6,0 M6,12 L6,9 M0,6 L3,6 M9,6 L12,6 M2,2 L4,4 M8,8 L10,10 M10,2 L8,4 M4,8 L2,10 M18,12 C19.6568542,12 21,10.6568542 21,9 C21,7.34314575 19.6568542,6 18,6 C16.3431458,6 15,7.34314575 15,9 C15,10.6568542 16.3431458,12 18,12 Z M18,6 L18,3 M18,15 L18,12 M12,9 L15,9 M21,9 L24,9 M14,5 L16,7 M20,11 L22,13 M22,5 L20,7 M16,11 L14,13 M9,21 C10.6568542,21 12,19.6568542 12,18 C12,16.3431458 10.6568542,15 9,15 C7.34314575,15 6,16.3431458 6,18 C6,19.6568542 7.34314575,21 9,21 Z M9,15 L9,12 M9,24 L9,21 M3,18 L6,18 M12,18 L15,18 M5,14 L7,16 M11,20 L13,22 M13,14 L11,16 M7,20 L5,22"
       id="path2"
       style="stroke:#333333;stroke-opacity:1" />
  </g>
</svg>
