<!DOCTYPE svg PUBLIC "-//W3C//DTD SVG 1.1//EN" "http://www.w3.org/Graphics/SVG/1.1/DTD/svg11.dtd">
<!-- Uploaded to: SVG Repo, www.svgrepo.com, Transformed by: SVG Repo Mixer Tools -->
<svg fill="#ffffff" width="800px" height="800px" viewBox="-3.2 -3.2 38.40 38.40" id="icon" xmlns="http://www.w3.org/2000/svg" stroke="#ffffff">
<g id="SVGRepo_bgCarrier" stroke-width="0">
<path transform="translate(-3.2, -3.2), scale(2.4)" fill="#4a6cf7" d="M9.166.33a2.25 2.25 0 00-2.332 0l-5.25 3.182A2.25 2.25 0 00.5 5.436v5.128a2.25 2.25 0 001.084 1.924l5.25 3.182a2.25 2.25 0 002.332 0l5.25-3.182a2.25 2.25 0 001.084-1.924V5.436a2.25 2.25 0 00-1.084-1.924L9.166.33z" strokewidth="0"/>
</g>
<g id="SVGRepo_tracerCarrier" stroke-linecap="round" stroke-linejoin="round"/>
<g id="SVGRepo_iconCarrier">
<defs>
<style>.cls-1{fill:none;}</style>
</defs>
<title>wikis</title>
<path d="M16,2A14,14,0,1,0,30,16,14,14,0,0,0,16,2ZM28,15H22A24.26,24.26,0,0,0,19.21,4.45,12,12,0,0,1,28,15ZM16,28a5,5,0,0,1-.67,0A21.85,21.85,0,0,1,12,17H20a21.85,21.85,0,0,1-3.3,11A5,5,0,0,1,16,28ZM12,15a21.85,21.85,0,0,1,3.3-11,6,6,0,0,1,1.34,0A21.85,21.85,0,0,1,20,15Zm.76-10.55A24.26,24.26,0,0,0,10,15h-6A12,12,0,0,1,12.79,4.45ZM4.05,17h6a24.26,24.26,0,0,0,2.75,10.55A12,12,0,0,1,4.05,17ZM19.21,27.55A24.26,24.26,0,0,0,22,17h6A12,12,0,0,1,19.21,27.55Z" transform="translate(0 0)"/>
<rect id="_Transparent_Rectangle_" data-name="&lt;Transparent Rectangle&gt;" class="cls-1" width="32" height="32" transform="translate(32 0) rotate(90)"/>
</g>
</svg>